<svg width="342" height="106" viewBox="0 0 342 106" fill="none" xmlns="http://www.w3.org/2000/svg">
<path d="M67.6453 53.2334C67.6891 48.0779 70.3212 43.2874 74.5764 40.55C71.9004 36.5807 67.5575 34.1171 62.8636 33.9802C57.9504 33.4327 53.1688 37.037 50.6683 37.037C48.124 37.037 44.2636 34.0258 40.0962 34.1171C34.6127 34.2996 29.6556 37.4476 26.9796 42.4206C21.3207 52.6403 25.532 67.6505 30.9716 75.9083C33.6914 79.9688 36.8499 84.4856 41.0174 84.3031C45.0971 84.1206 46.5886 81.6113 51.5018 81.6113C56.3712 81.6113 57.775 84.3031 62.0302 84.2119C66.417 84.1206 69.1368 80.1513 71.7688 76.0908C73.7429 73.2165 75.2344 70.0229 76.2434 66.6467C71.0231 64.3656 67.6453 59.1188 67.6453 53.2334Z" fill="white"/>
<path d="M59.6176 28.5507C61.9864 25.5852 63.1709 21.7528 62.9077 17.9204C59.2666 18.331 55.9327 20.1103 53.5199 22.9846C51.1511 25.8133 49.9228 29.5088 50.186 33.25C53.827 33.2956 57.3364 31.5619 59.6176 28.5507Z" fill="white"/>
<path d="M119.059 74.0825H105.196L101.862 84.3022H95.9841L109.145 46.4346H115.242L128.403 84.3022H122.437L119.059 74.0825ZM106.6 69.3833H117.611L112.171 52.7763H112.04L106.6 69.3833Z" fill="white"/>
<path d="M156.785 70.524C156.785 79.1013 152.354 84.6217 145.686 84.6217C142.221 84.8042 139.018 82.9337 137.352 79.7856H137.22V93.4727H131.78V56.7001H137.044V61.308H137.132C138.887 58.2056 142.133 56.2894 145.599 56.4263C152.31 56.4263 156.785 61.9924 156.785 70.524ZM151.17 70.524C151.17 64.9123 148.406 61.2624 144.151 61.2624C139.984 61.2624 137.176 65.0036 137.176 70.524C137.176 76.0901 139.984 79.8313 144.151 79.8313C148.406 79.8313 151.17 76.1814 151.17 70.524Z" fill="white"/>
<path d="M186.001 70.524C186.001 79.1013 181.57 84.6217 174.902 84.6217C171.437 84.8042 168.235 82.9337 166.568 79.7856H166.436V93.4727H160.996V56.7001H166.26V61.308H166.348C168.103 58.2056 171.349 56.2894 174.815 56.4263C181.57 56.4263 186.001 61.9924 186.001 70.524ZM180.386 70.524C180.386 64.9123 177.622 61.2624 173.367 61.2624C169.2 61.2624 166.392 65.0036 166.392 70.524C166.392 76.0901 169.2 79.8313 173.367 79.8313C177.622 79.8313 180.386 76.1814 180.386 70.524Z" fill="white"/>
<path d="M205.303 73.7632C205.698 77.5043 209.207 79.968 213.989 79.968C218.595 79.968 221.885 77.5043 221.885 74.1282C221.885 71.2083 219.911 69.429 215.173 68.2427L210.436 67.0565C203.768 65.3685 200.653 62.1292 200.653 56.8368C200.653 50.3126 206.137 45.7959 213.901 45.7959C221.578 45.7959 226.886 50.267 227.062 56.8368H221.578C221.227 53.0501 218.244 50.7689 213.857 50.7689C209.471 50.7689 206.444 53.0957 206.444 56.4262C206.444 59.118 208.374 60.6692 213.068 61.9011L217.06 62.9048C224.517 64.7297 227.632 67.8778 227.632 73.3982C227.632 80.4699 222.192 84.941 213.594 84.941C205.522 84.941 200.083 80.6068 199.732 73.7632H205.303Z" fill="white"/>
<path d="M239.432 50.1758V56.7H244.477V61.1711H239.432V76.4094C239.432 78.7818 240.441 79.8768 242.679 79.8768C243.293 79.8768 243.863 79.8312 244.477 79.7399V84.211C243.468 84.3935 242.459 84.4848 241.45 84.4848C236.054 84.4848 233.993 82.3861 233.993 77.0481V61.2167H230.132V56.7456H233.993V50.1758H239.432Z" fill="white"/>
<path d="M247.416 70.5237C247.416 61.8552 252.329 56.3804 260.006 56.3804C267.683 56.3804 272.596 61.8552 272.596 70.5237C272.596 79.2378 267.727 84.667 260.006 84.667C252.286 84.667 247.416 79.2378 247.416 70.5237ZM267.025 70.5237C267.025 64.547 264.393 61.034 259.962 61.034C255.532 61.034 252.944 64.5926 252.944 70.5237C252.944 76.5004 255.576 80.0134 259.962 80.0134C264.437 80.0134 267.025 76.5004 267.025 70.5237Z" fill="white"/>
<path d="M277.071 56.7456H282.247V61.4449H282.379C283.125 58.4337 285.757 56.335 288.784 56.4719C289.398 56.4719 290.056 56.5631 290.67 56.7V61.9924C289.88 61.7186 289.047 61.6274 288.214 61.6274C285.187 61.4905 282.642 63.9542 282.511 67.1022C282.511 67.376 282.511 67.6953 282.555 67.9691V84.348H277.071V56.7456Z" fill="white"/>
<path d="M315.806 76.2267C315.061 81.2453 310.367 84.667 304.357 84.667C296.636 84.667 291.854 79.2834 291.854 70.6606C291.854 61.9921 296.68 56.3804 304.138 56.3804C311.463 56.3804 316.113 61.6271 316.113 70.0218V71.9837H297.382V72.3487C297.031 76.3179 299.838 79.7853 303.655 80.1503C303.962 80.1959 304.225 80.1959 304.532 80.1959C307.164 80.4697 309.665 78.8728 310.674 76.3179L315.806 76.2267ZM297.382 67.9688H310.674C310.849 64.3189 308.173 61.1709 304.664 60.9884C304.488 60.9884 304.357 60.9884 304.181 60.9884C300.453 60.9427 297.426 64.0908 297.426 67.9232C297.382 67.9232 297.382 67.9688 297.382 67.9688Z" fill="white"/>
<path d="M105.942 17.9653C110.197 17.6459 113.926 20.9764 114.233 25.4019C114.277 25.9494 114.277 26.4513 114.189 26.9988C114.189 32.793 111.163 36.1691 105.942 36.1691H99.6252V17.9653H105.942ZM102.345 33.5686H105.635C108.662 33.7511 111.294 31.333 111.47 28.185C111.513 27.7744 111.47 27.4094 111.426 26.9988C111.821 23.8507 109.715 20.9764 106.732 20.5202C106.381 20.4746 106.03 20.4746 105.679 20.4746H102.389V33.5686H102.345Z" fill="white"/>
<path d="M117.26 29.2804C116.909 25.7217 119.454 22.528 122.875 22.1631C126.297 21.7981 129.368 24.4442 129.719 28.0029C129.763 28.4135 129.763 28.8241 129.719 29.2347C130.07 32.7934 127.525 35.987 124.104 36.352C120.682 36.717 117.611 34.0708 117.26 30.5122C117.216 30.1016 117.216 29.691 117.26 29.2804ZM126.999 29.2804C126.999 26.3148 125.727 24.5811 123.446 24.5811C121.164 24.5811 119.892 26.3148 119.892 29.2804C119.892 32.2915 121.164 34.0252 123.446 34.0252C125.727 34.0252 126.999 32.2459 126.999 29.2804Z" fill="white"/>
<path d="M146.257 36.169H143.537L140.817 26.0406H140.598L137.878 36.169H135.202L131.561 22.4363H134.193L136.562 32.9297H136.738L139.458 22.4363H141.958L144.678 32.9297H144.897L147.266 22.4363H149.854L146.257 36.169Z" fill="white"/>
<path d="M152.925 22.4365H155.425V24.6264H155.601C156.259 23.0296 157.882 22.0258 159.549 22.1627C161.918 21.9802 163.98 23.8052 164.155 26.2689C164.199 26.5882 164.155 26.9076 164.111 27.2726V36.1692H161.523V27.9569C161.523 25.767 160.602 24.672 158.672 24.672C157.005 24.5808 155.601 25.9495 155.513 27.6832C155.513 27.8657 155.513 28.0026 155.513 28.185V36.2148H152.925V22.4365Z" fill="white"/>
<path d="M168.323 17.053H170.911V36.1693H168.323V17.053Z" fill="white"/>
<path d="M174.552 29.2801C174.245 25.7214 176.745 22.5277 180.167 22.1628C183.589 21.8434 186.659 24.4439 187.01 28.0026C187.054 28.4132 187.054 28.8238 187.01 29.2344C187.361 32.7931 184.817 35.9867 181.395 36.3517C177.973 36.7167 174.903 34.0705 174.552 30.5119C174.508 30.1013 174.508 29.6907 174.552 29.2801ZM184.29 29.2801C184.29 26.3145 183.018 24.5808 180.737 24.5808C178.456 24.5808 177.184 26.3145 177.184 29.2801C177.184 32.2912 178.456 34.0249 180.737 34.0249C183.018 34.0249 184.29 32.2456 184.29 29.2801Z" fill="white"/>
<path d="M189.73 32.2454C189.73 29.7817 191.485 28.3674 194.643 28.1392L198.24 27.9111V26.7249C198.24 25.2649 197.319 24.4437 195.521 24.4437C194.073 24.4437 193.064 24.9912 192.757 25.9493H190.213C190.476 23.5769 192.625 22.0713 195.608 22.0713C198.898 22.0713 200.785 23.805 200.785 26.6793V36.0778H198.284V34.2072H198.109C197.275 35.6215 195.74 36.4427 194.161 36.3515C191.967 36.5796 189.993 34.9372 189.774 32.656C189.73 32.5647 189.73 32.3822 189.73 32.2454ZM198.24 31.1048V29.9642L194.994 30.1923C193.196 30.3292 192.362 30.9679 192.362 32.1541C192.362 33.386 193.415 34.1159 194.819 34.1159C196.53 34.2984 198.065 33.021 198.24 31.2416C198.24 31.1504 198.24 31.1504 198.24 31.1048Z" fill="white"/>
<path d="M204.25 29.2801C204.25 24.9459 206.4 22.2085 209.734 22.2085C211.401 22.1172 212.98 23.0753 213.77 24.6265H213.945V17.053H216.534V36.1693H214.033V33.9794H213.814C212.98 35.5306 211.357 36.443 209.646 36.3974C206.356 36.3974 204.25 33.6144 204.25 29.2801ZM206.926 29.2801C206.926 32.2 208.242 33.9337 210.436 33.9337C212.629 33.9337 213.989 32.1544 213.989 29.2801C213.989 26.4058 212.629 24.6265 210.436 24.6265C208.286 24.6265 206.926 26.4058 206.926 29.2801Z" fill="white"/>
<path d="M227.369 29.2804C227.018 25.7217 229.562 22.528 232.984 22.1631C236.406 21.7981 239.476 24.4442 239.827 28.0029C239.871 28.4135 239.871 28.8241 239.827 29.2347C240.178 32.7934 237.634 35.987 234.212 36.352C230.791 36.717 227.72 34.0708 227.369 30.5122C227.325 30.1016 227.325 29.691 227.369 29.2804ZM237.151 29.2804C237.151 26.3148 235.879 24.5811 233.598 24.5811C231.317 24.5811 230.045 26.3148 230.045 29.2804C230.045 32.2915 231.317 34.0252 233.598 34.0252C235.835 34.0252 237.151 32.2459 237.151 29.2804Z" fill="white"/>
<path d="M243.293 22.4365H245.793V24.6264H245.969C246.627 23.0296 248.25 22.0258 249.917 22.1627C252.286 21.9802 254.348 23.8052 254.523 26.2689C254.567 26.5882 254.523 26.9076 254.479 27.2726V36.1692H251.891V27.9569C251.891 25.767 250.97 24.672 249.04 24.672C247.373 24.5808 245.969 25.9495 245.881 27.6832C245.881 27.8657 245.881 28.0026 245.881 28.185V36.2148H243.293V22.4365Z" fill="white"/>
<path d="M269.263 19.0149V22.4823H272.114V24.7635H269.263V31.8351C269.263 33.2951 269.833 33.8882 271.149 33.8882C271.5 33.8882 271.807 33.8882 272.158 33.8426V36.0781C271.676 36.1694 271.237 36.215 270.754 36.215C267.859 36.215 266.718 35.1657 266.718 32.5195V24.7635H264.613V22.4823H266.718V19.0149H269.263Z" fill="white"/>
<path d="M275.667 17.053H278.256V24.6265H278.475C279.177 22.9841 280.8 22.026 282.511 22.1628C284.924 22.026 286.942 23.9422 287.073 26.4515C287.073 26.7252 287.073 26.9989 287.029 27.3183V36.1693H284.441V27.957C284.441 25.7671 283.476 24.6721 281.634 24.6721C279.923 24.5353 278.431 25.8583 278.3 27.592C278.3 27.7745 278.3 27.957 278.3 28.1395V36.1693H275.711L275.667 17.053Z" fill="white"/>
<path d="M302.251 32.4284C301.506 35.029 299.093 36.6714 296.549 36.3977C293.258 36.4889 290.495 33.7515 290.407 30.3297C290.407 30.0104 290.407 29.6454 290.451 29.326C290.012 25.8586 292.337 22.6649 295.671 22.2087C295.978 22.1631 296.241 22.1631 296.549 22.1631C300.233 22.1631 302.427 24.7636 302.427 29.0979V30.056H293.083V30.1929C292.907 32.2003 294.355 33.934 296.285 34.1165C296.417 34.1165 296.505 34.1165 296.636 34.1165C297.908 34.2534 299.137 33.6146 299.795 32.474L302.251 32.4284ZM293.083 28.0029H299.751C299.882 26.178 298.566 24.5811 296.812 24.4443C296.724 24.4443 296.592 24.4443 296.505 24.4443C294.618 24.3986 293.127 25.9498 293.083 27.9117C293.083 27.9573 293.083 28.0029 293.083 28.0029Z" fill="white"/>
<rect x="1" y="1" width="340" height="104" rx="13" stroke="#A2A2A1" stroke-width="2"/>
</svg>
