<svg width="60" height="61" viewBox="0 0 60 61" fill="none" xmlns="http://www.w3.org/2000/svg">
<path d="M30 0.660156C13.4319 0.660156 0.000488281 14.0919 0.000488281 30.6599C0.000488281 47.2274 13.4319 60.6602 30 60.6602C46.5681 60.6602 60.0005 47.2274 60.0005 30.6599C60.0005 14.0919 46.5681 0.660156 30 0.660156ZM30.0006 11.1975L47.7535 22.2676H12.2477L30.0006 11.1975ZM47.9747 39.9452H47.9729C47.9729 41.7208 46.5339 43.1596 44.7584 43.1596H15.2427C13.4671 43.1596 12.0283 41.7206 12.0283 39.9452V22.972C12.0283 22.7842 12.0475 22.6016 12.0787 22.4222L29.0406 32.9989C29.0614 33.0119 29.0836 33.0207 29.105 33.0327C29.1274 33.0451 29.1502 33.0571 29.173 33.0685C29.2928 33.1303 29.4162 33.1801 29.5424 33.2127C29.5554 33.2163 29.5684 33.2179 29.5814 33.2209C29.7198 33.2535 29.86 33.2739 30 33.2739H30.001C30.002 33.2739 30.003 33.2739 30.003 33.2739C30.143 33.2739 30.2832 33.2541 30.4216 33.2209C30.4346 33.2177 30.4476 33.2163 30.4606 33.2127C30.5866 33.1801 30.7096 33.1303 30.83 33.0685C30.8528 33.0571 30.8756 33.0451 30.898 33.0327C30.9192 33.0207 30.9416 33.0119 30.9624 32.9989L47.9243 22.4222C47.9555 22.6016 47.9747 22.7838 47.9747 22.972V39.9452Z" fill="#8D8D8D"/>
</svg>
