<svg width="122" height="122" viewBox="0 0 122 122" fill="none" xmlns="http://www.w3.org/2000/svg">
<path d="M122 61C122 94.6894 94.6894 122 61 122C27.3106 122 0 94.6894 0 61C0 27.3106 27.3106 0 61 0C94.6894 0 122 27.3106 122 61Z" fill="#74847F"/>
<path d="M96.9458 64.6349H88.6458L86.3242 51.3117C87.8202 52.1883 89.6133 52.7001 91.5405 52.7001C96.7567 52.7001 101 48.9524 101 44.3495C101 39.7466 96.7567 36 91.5405 36C86.3242 36 82.081 39.7454 82.081 44.3495C82.081 45.317 82.2781 46.2424 82.6229 47.1073L77.4528 43.1999C76.4014 42.4055 75.0624 41.9726 73.6797 41.9726H55.0542C52.8191 41.9726 51 43.578 51 45.5511C51 47.5241 52.8188 49.1295 55.0542 49.1295H71.7851L57.7217 58.878C55.1677 60.6493 53.7027 63.3079 53.7027 66.1754C53.7027 69.3482 55.5082 72.2655 58.5338 73.9831L71.0742 81.098L60.5028 84.9864C59.4407 85.3765 58.6056 86.147 58.2109 87.0989C57.8162 88.0531 57.8906 89.1183 58.4176 90.0224C59.1472 91.2723 60.5933 92 62.0973 92C62.6554 92 63.2216 91.8997 63.7607 91.6888L78.3335 86.0111C80.6093 85.076 82.0807 83.0375 82.0807 80.8189C82.0807 79.3089 81.3873 77.8321 80.178 76.7672L71.8955 69.4556L79.7035 63.4237L80.3063 67.6782C80.6372 70.022 82.9034 71.792 85.5779 71.792H96.9453C99.1803 71.792 100.999 70.1866 100.999 68.2136C101 66.2402 99.1812 64.6349 96.9458 64.6349ZM91.5405 38.3843C95.266 38.3843 98.2973 41.0596 98.2973 44.3482C98.2973 47.6369 95.2663 50.3122 91.5405 50.3122C87.815 50.3122 84.7836 47.6369 84.7836 44.3482C84.7836 41.0596 87.815 38.3843 91.5405 38.3843ZM96.9458 69.406H85.5784C84.265 69.406 83.1514 68.5339 82.9879 67.383L81.754 58.6734L67.9405 69.3393L78.2675 78.4545C78.9744 79.0758 79.3783 79.9372 79.3783 80.8196C79.3783 82.1138 78.5189 83.3042 77.2161 83.8408L62.6675 89.5076C61.9756 89.7806 61.1647 89.5254 60.8187 88.9328C60.6336 88.6142 60.6091 88.2564 60.7472 87.92C60.8865 87.5862 61.1676 87.3261 61.5406 87.189L73.0256 82.9655C73.7783 82.6899 74.2906 82.0734 74.3621 81.3566C74.4336 80.6397 74.0528 79.9527 73.3675 79.5649L59.9948 71.9762C57.7476 70.6989 56.4056 68.5304 56.4056 66.1723C56.4056 64.042 57.4948 62.0643 59.392 60.7475L76.0053 49.2313L73.181 46.7432H55.0542C54.3095 46.7432 53.7027 46.2088 53.7027 45.5503C53.7027 44.8918 54.3095 44.3574 55.0542 44.3574H73.6797C74.4175 44.3574 75.1324 44.5864 75.6931 45.0098L83.5241 50.9379L86.3268 67.0202H96.9455C97.6902 67.0202 98.297 67.5545 98.297 68.2131C98.297 68.8716 97.6905 69.406 96.9458 69.406Z" fill="black"/>
<path d="M37.2436 77.1059C36.5598 77.7652 35.4086 77.8783 34.5681 77.3701C34.1078 77.0918 33.8134 76.6763 33.7413 76.2017C33.6692 75.726 33.8285 75.263 34.1909 74.8947L52.2986 56.4791L50.2061 55L32.0969 73.4166C31.2564 74.2711 30.8708 75.3945 31.0385 76.4982C31.2062 77.6019 31.9159 78.6054 32.9851 79.252C33.8189 79.7554 34.7791 80 35.7341 80C37.053 80 38.3593 79.5313 39.2925 78.6283L55 63.4295L52.9496 61.9078L37.2436 77.1059Z" fill="black"/>
<path d="M59 40H29V42H59V40Z" fill="#333333"/>
<path d="M25 40H20V42H25V40Z" fill="#333333"/>
<path d="M52 44H31V47H52V44Z" fill="#333333"/>
<path d="M29 44H23V47H29V44Z" fill="#333333"/>
<path d="M51 49H32V51H51V49Z" fill="#333333"/>
<path d="M30 49H25V51H30V49Z" fill="#333333"/>
<path d="M48 35H25V37H48V35Z" fill="#333333"/>
<path d="M23 35H17V37H23V35Z" fill="#333333"/>
<path d="M48 37H20V40H48V37Z" fill="black"/>
<path d="M59 42H23V44H59V42Z" fill="black"/>
<path d="M52 47H25V49H52V47Z" fill="black"/>
<path d="M51 51H29V54H51V51Z" fill="black"/>
</svg>
