<svg width="61" height="61" viewBox="0 0 61 61" fill="none" xmlns="http://www.w3.org/2000/svg">
<path d="M30.5625 0.725586C13.9875 0.725586 0.562504 14.4905 0.562504 31.4852C0.559102 37.9424 2.53895 44.2369 6.22115 49.4754C9.90336 54.714 15.1009 58.6307 21.0765 60.6698C22.5765 60.9374 23.1375 60.0146 23.1375 59.2057C23.1375 58.4767 23.0985 56.0559 23.0985 53.4782C15.5625 54.9024 13.6125 51.5958 13.0125 49.864C12.6735 48.9781 11.2125 46.2497 9.9375 45.5177C8.8875 44.9425 7.3875 43.5183 9.8985 43.4814C12.2625 43.4414 13.9485 45.7114 14.5125 46.6342C17.2125 51.2851 21.5265 49.9778 23.2485 49.1719C23.5125 47.1725 24.2985 45.8283 25.1625 45.0593C18.4875 44.2904 11.5125 41.6358 11.5125 29.8703C11.5125 26.5236 12.6735 23.7583 14.5875 21.6021C14.2875 20.8331 13.2375 17.6803 14.8875 13.4508C14.8875 13.4508 17.3985 12.6449 23.1375 16.6068C25.5797 15.9118 28.103 15.562 30.6375 15.5671C33.1875 15.5671 35.7375 15.9116 38.1375 16.6037C43.8735 12.6049 46.3875 13.4539 46.3875 13.4539C48.0375 17.6833 46.9875 20.8362 46.6875 21.6052C48.5985 23.7584 49.7625 26.4867 49.7625 29.8703C49.7625 41.6758 42.7515 44.2904 36.0765 45.0593C37.1625 46.019 38.1015 47.8646 38.1015 50.7499C38.1015 54.8624 38.0625 58.1691 38.0625 59.2087C38.0625 60.0147 38.6265 60.9743 40.1265 60.6668C46.0816 58.6052 51.2563 54.6809 54.9222 49.4461C58.5882 44.2113 60.5608 37.9296 60.5625 31.4852C60.5625 14.4905 47.1375 0.725586 30.5625 0.725586Z" fill="#8D8D8D"/>
</svg>
