<svg width="61" height="61" viewBox="0 0 61 61" fill="none" xmlns="http://www.w3.org/2000/svg">
<path d="M30.2678 0.0996094C13.6991 0.0996094 0.267822 13.5309 0.267822 30.0996C0.267822 46.6684 13.6991 60.0996 30.2678 60.0996C46.8366 60.0996 60.2678 46.6684 60.2678 30.0996C60.2678 13.5309 46.8366 0.0996094 30.2678 0.0996094ZM22.9241 42.534H16.8491V22.984H22.9241V42.534ZM19.8491 20.584C17.9303 20.584 16.6897 19.2246 16.6897 17.5434C16.6897 15.8277 17.9678 14.509 19.9272 14.509C21.8866 14.509 23.0866 15.8277 23.1241 17.5434C23.1241 19.2246 21.8866 20.584 19.8491 20.584ZM45.1116 42.534H39.0366V31.6996C39.0366 29.1777 38.1553 27.4652 35.9584 27.4652C34.2803 27.4652 33.2834 28.6246 32.8428 29.7402C32.6803 30.1371 32.6397 30.6996 32.6397 31.259V42.5309H26.5616V29.2184C26.5616 26.7777 26.4834 24.7371 26.4022 22.9809H31.6803L31.9584 25.6965H32.0803C32.8803 24.4215 34.8397 22.5402 38.1178 22.5402C42.1147 22.5402 45.1116 25.2184 45.1116 30.9746V42.534Z" fill="#8D8D8D"/>
</svg>
