<svg width="110" height="110" viewBox="0 0 110 110" fill="none" xmlns="http://www.w3.org/2000/svg">
<path d="M110 55C110 85.3757 85.3757 110 55 110C24.6243 110 0 85.3757 0 55C0 24.6243 24.6243 0 55 0C85.3757 0 110 24.6243 110 55Z" fill="#74847F"/>
<path d="M55.5 31.1066C39.8151 31.1066 27.1 42.0428 27.1 55.5332C27.1 62.2713 30.2673 68.3673 35.3997 72.7897C36.7848 73.983 36.7828 75.9163 35.3951 77.1077C34.0075 78.2988 31.7598 78.2973 30.3747 77.1038C23.9678 71.5831 20 63.9537 20 55.5332C20 38.6702 35.8939 25 55.5 25C75.1059 25 91 38.6702 91 55.5332C91 63.9537 87.0322 71.5831 80.6251 77.1038C79.2403 78.2973 76.9924 78.2988 75.6047 77.1077C74.2174 75.9163 74.2152 73.983 75.6001 72.7897C80.7327 68.3673 83.9 62.2713 83.9 55.5332C83.9 42.0428 71.185 31.1066 55.5 31.1066Z" fill="black"/>
<path d="M56 49C52.1339 49 49 51.9101 49 55.5C49 59.0899 52.1339 62 56 62C59.8661 62 63 59.0899 63 55.5C63 51.9101 59.8661 49 56 49Z" fill="black"/>
<path d="M41.1667 55.7935C41.1667 48.8741 47.5839 43.2645 55.5 43.2645C63.4159 43.2645 69.8333 48.8741 69.8333 55.7935C69.8333 59.254 68.233 62.3822 65.6351 64.6528C64.2358 65.8762 64.2358 67.8593 65.6351 69.0824C67.0347 70.3059 69.3034 70.3059 70.7026 69.0824C74.5895 65.6849 77 60.9824 77 55.7935C77 45.4141 67.3741 37 55.5 37C43.6259 37 34 45.4141 34 55.7935C34 60.9824 36.4104 65.6849 40.2972 69.0824C41.6966 70.3059 43.9654 70.3059 45.3648 69.0824C46.7642 67.8593 46.7642 65.8762 45.3648 64.6528C42.7671 62.3822 41.1667 59.254 41.1667 55.7935Z" fill="black"/>
</svg>
