<svg width="745" height="202" viewBox="0 0 745 202" fill="none" xmlns="http://www.w3.org/2000/svg">
<path d="M15.497 6.77138C15.497 8.11064 15.0426 9.41982 14.1912 10.5334C13.3398 11.6469 12.1296 12.5148 10.7138 13.0273C9.29789 13.5398 7.73993 13.6739 6.23686 13.4127C4.7338 13.1514 3.35314 12.5065 2.26949 11.5595C1.18584 10.6125 0.447867 9.40593 0.148889 8.09241C-0.150089 6.77889 0.00335729 5.41739 0.589824 4.18009C1.17629 2.94278 2.16944 1.88524 3.44368 1.14119C4.71791 0.397139 6.21601 3.65632e-06 7.74852 3.65632e-06C9.80355 2.16148e-05 11.7744 0.713439 13.2275 1.98332C14.6807 3.25319 15.497 4.97551 15.497 6.77138ZM73.6109 3.65632e-06C72.0784 3.65632e-06 70.5803 0.397139 69.3061 1.14119C68.0318 1.88524 67.0387 2.94278 66.4522 4.18009C65.8658 5.41739 65.7123 6.77889 66.0113 8.09241C66.3103 9.40593 67.0483 10.6125 68.1319 11.5595C69.2156 12.5065 70.5962 13.1514 72.0993 13.4127C73.6023 13.6739 75.1603 13.5398 76.5762 13.0273C77.992 12.5148 79.2022 11.6469 80.0536 10.5334C80.905 9.41982 81.3595 8.11064 81.3595 6.77138C81.3595 5.88215 81.1591 5.00161 80.7697 4.18006C80.3803 3.35851 79.8095 2.61202 79.09 1.98324C78.3705 1.35445 77.5163 0.855677 76.5762 0.515392C75.6361 0.175107 74.6285 -2.19104e-05 73.6109 3.65632e-06ZM139.473 13.5428C141.006 13.5428 142.504 13.1456 143.778 12.4016C145.052 11.6575 146.046 10.6 146.632 9.36268C147.218 8.12537 147.372 6.76387 147.073 5.45035C146.774 4.13683 146.036 2.93029 144.952 1.9833C143.869 1.0363 142.488 0.391388 140.985 0.130113C139.482 -0.131162 137.924 0.00293391 136.508 0.515444C135.092 1.02795 133.882 1.89586 133.031 3.0094C132.179 4.12295 131.725 5.43213 131.725 6.77138C131.725 8.56726 132.541 10.2896 133.994 11.5595C135.447 12.8293 137.418 13.5427 139.473 13.5428ZM7.74852 60.9424C6.21601 60.9424 4.71791 61.3396 3.44368 62.0836C2.16944 62.8277 1.17629 63.8852 0.589824 65.1225C0.00335729 66.3598 -0.150089 67.7213 0.148889 69.0348C0.447867 70.3484 1.18584 71.5549 2.26949 72.5019C3.35314 73.4489 4.7338 74.0938 6.23686 74.3551C7.73993 74.6164 9.29789 74.4823 10.7138 73.9697C12.1296 73.4572 13.3398 72.5893 14.1912 71.4758C15.0426 70.3622 15.497 69.0531 15.497 67.7138C15.4971 66.8246 15.2967 65.944 14.9073 65.1225C14.5179 64.3009 13.9471 63.5544 13.2276 62.9257C12.5081 62.2969 11.6539 61.7981 10.7138 61.4578C9.77368 61.1175 8.76608 60.9424 7.74852 60.9424ZM73.6109 60.9424C72.0784 60.9424 70.5803 61.3396 69.3061 62.0836C68.0318 62.8277 67.0387 63.8852 66.4522 65.1225C65.8658 66.3598 65.7123 67.7213 66.0113 69.0348C66.3103 70.3484 67.0483 71.5549 68.1319 72.5019C69.2156 73.4489 70.5962 74.0938 72.0993 74.3551C73.6023 74.6164 75.1603 74.4823 76.5762 73.9697C77.992 73.4572 79.2022 72.5893 80.0536 71.4758C80.905 70.3622 81.3595 69.0531 81.3595 67.7138C81.3595 66.8246 81.1591 65.944 80.7697 65.1225C80.3803 64.3009 79.8095 63.5544 79.09 62.9257C78.3705 62.2969 77.5163 61.7981 76.5762 61.4578C75.6361 61.1175 74.6285 60.9424 73.6109 60.9424ZM139.473 60.9424C137.941 60.9424 136.443 61.3396 135.168 62.0836C133.894 62.8277 132.901 63.8852 132.315 65.1225C131.728 66.3598 131.575 67.7213 131.874 69.0348C132.173 70.3484 132.911 71.5549 133.994 72.5019C135.078 73.4489 136.459 74.0938 137.962 74.3551C139.465 74.6164 141.023 74.4823 142.439 73.9697C143.854 73.4572 145.065 72.5893 145.916 71.4758C146.767 70.3622 147.222 69.0531 147.222 67.7138C147.222 66.8246 147.021 65.944 146.632 65.1225C146.243 64.3009 145.672 63.5544 144.952 62.9257C144.233 62.2969 143.379 61.7981 142.439 61.4578C141.499 61.1175 140.491 60.9424 139.473 60.9424Z" fill="#7743DB"/>
<path d="M15.497 133.735C15.497 135.074 15.0426 136.383 14.1912 137.497C13.3398 138.61 12.1296 139.478 10.7138 139.991C9.29789 140.503 7.73993 140.637 6.23686 140.376C4.7338 140.115 3.35314 139.47 2.26949 138.523C1.18584 137.576 0.447867 136.369 0.148889 135.056C-0.150089 133.742 0.00335729 132.381 0.589824 131.143C1.17629 129.906 2.16944 128.849 3.44368 128.105C4.71791 127.361 6.21601 126.963 7.74852 126.963C9.80355 126.963 11.7744 127.677 13.2275 128.947C14.6807 130.217 15.497 131.939 15.497 133.735ZM73.6109 126.963C72.0784 126.963 70.5803 127.361 69.3061 128.105C68.0318 128.849 67.0387 129.906 66.4522 131.143C65.8658 132.381 65.7123 133.742 66.0113 135.056C66.3103 136.369 67.0483 137.576 68.1319 138.523C69.2156 139.47 70.5962 140.115 72.0993 140.376C73.6023 140.637 75.1603 140.503 76.5762 139.991C77.992 139.478 79.2022 138.61 80.0536 137.497C80.905 136.383 81.3595 135.074 81.3595 133.735C81.3595 132.846 81.1591 131.965 80.7697 131.143C80.3803 130.322 79.8095 129.575 79.09 128.947C78.3705 128.318 77.5163 127.819 76.5762 127.479C75.6361 127.138 74.6285 126.963 73.6109 126.963ZM139.473 140.506C141.006 140.506 142.504 140.109 143.778 139.365C145.052 138.621 146.046 137.563 146.632 136.326C147.218 135.089 147.372 133.727 147.073 132.414C146.774 131.1 146.036 129.894 144.952 128.947C143.869 128 142.488 127.355 140.985 127.093C139.482 126.832 137.924 126.966 136.508 127.479C135.092 127.991 133.882 128.859 133.031 129.973C132.179 131.086 131.725 132.396 131.725 133.735C131.725 135.531 132.541 137.253 133.994 138.523C135.447 139.793 137.418 140.506 139.473 140.506ZM7.74852 187.906C6.21601 187.906 4.71791 188.303 3.44368 189.047C2.16944 189.791 1.17629 190.849 0.589824 192.086C0.00335729 193.323 -0.150089 194.685 0.148889 195.998C0.447867 197.312 1.18584 198.518 2.26949 199.465C3.35314 200.412 4.7338 201.057 6.23686 201.318C7.73993 201.58 9.29789 201.446 10.7138 200.933C12.1296 200.421 13.3398 199.553 14.1912 198.439C15.0426 197.326 15.497 196.016 15.497 194.677C15.4971 193.788 15.2967 192.907 14.9073 192.086C14.5179 191.264 13.9471 190.518 13.2276 189.889C12.5081 189.26 11.6539 188.761 10.7138 188.421C9.77368 188.081 8.76608 187.906 7.74852 187.906ZM73.6109 187.906C72.0784 187.906 70.5803 188.303 69.3061 189.047C68.0318 189.791 67.0387 190.849 66.4522 192.086C65.8658 193.323 65.7123 194.685 66.0113 195.998C66.3103 197.312 67.0483 198.518 68.1319 199.465C69.2156 200.412 70.5962 201.057 72.0993 201.318C73.6023 201.58 75.1603 201.446 76.5762 200.933C77.992 200.421 79.2022 199.553 80.0536 198.439C80.905 197.326 81.3595 196.016 81.3595 194.677C81.3595 193.788 81.1591 192.907 80.7697 192.086C80.3803 191.264 79.8095 190.518 79.09 189.889C78.3705 189.26 77.5163 188.761 76.5762 188.421C75.6361 188.081 74.6285 187.906 73.6109 187.906ZM139.473 187.906C137.941 187.906 136.443 188.303 135.168 189.047C133.894 189.791 132.901 190.849 132.315 192.086C131.728 193.323 131.575 194.685 131.874 195.998C132.173 197.312 132.911 198.518 133.994 199.465C135.078 200.412 136.459 201.057 137.962 201.318C139.465 201.58 141.023 201.446 142.439 200.933C143.854 200.421 145.065 199.553 145.916 198.439C146.767 197.326 147.222 196.016 147.222 194.677C147.222 193.788 147.021 192.907 146.632 192.086C146.243 191.264 145.672 190.518 144.952 189.889C144.233 189.26 143.379 188.761 142.439 188.421C141.499 188.081 140.491 187.906 139.473 187.906Z" fill="#7743DB"/>
<path d="M213.084 6.77138C213.084 8.11064 212.63 9.41982 211.778 10.5334C210.927 11.6469 209.717 12.5148 208.301 13.0273C206.885 13.5398 205.327 13.6739 203.824 13.4127C202.321 13.1514 200.94 12.5065 199.857 11.5595C198.773 10.6125 198.035 9.40593 197.736 8.09241C197.437 6.77889 197.591 5.41739 198.177 4.18009C198.763 2.94278 199.757 1.88524 201.031 1.14119C202.305 0.397139 203.803 3.65632e-06 205.336 3.65632e-06C207.391 2.16148e-05 209.362 0.713439 210.815 1.98332C212.268 3.25319 213.084 4.97551 213.084 6.77138ZM271.198 3.65632e-06C269.666 3.65632e-06 268.167 0.397139 266.893 1.14119C265.619 1.88524 264.626 2.94278 264.039 4.18009C263.453 5.41739 263.299 6.77889 263.598 8.09241C263.897 9.40593 264.635 10.6125 265.719 11.5595C266.803 12.5065 268.183 13.1514 269.686 13.4127C271.189 13.6739 272.747 13.5398 274.163 13.0273C275.579 12.5148 276.789 11.6469 277.641 10.5334C278.492 9.41982 278.947 8.11064 278.947 6.77138C278.947 5.88215 278.746 5.00161 278.357 4.18006C277.967 3.35851 277.397 2.61202 276.677 1.98324C275.958 1.35445 275.103 0.855677 274.163 0.515392C273.223 0.175107 272.216 -2.19104e-05 271.198 3.65632e-06ZM337.06 13.5428C338.593 13.5428 340.091 13.1456 341.365 12.4016C342.64 11.6575 343.633 10.6 344.219 9.36268C344.806 8.12537 344.959 6.76387 344.66 5.45035C344.361 4.13683 343.623 2.93029 342.54 1.9833C341.456 1.0363 340.075 0.391388 338.572 0.130113C337.069 -0.131162 335.511 0.00293391 334.095 0.515444C332.679 1.02795 331.469 1.89586 330.618 3.0094C329.766 4.12295 329.312 5.43213 329.312 6.77138C329.312 8.56726 330.128 10.2896 331.581 11.5595C333.035 12.8293 335.005 13.5427 337.06 13.5428ZM205.336 60.9424C203.803 60.9424 202.305 61.3396 201.031 62.0836C199.757 62.8277 198.763 63.8852 198.177 65.1225C197.591 66.3598 197.437 67.7213 197.736 69.0348C198.035 70.3484 198.773 71.5549 199.857 72.5019C200.94 73.4489 202.321 74.0938 203.824 74.3551C205.327 74.6164 206.885 74.4823 208.301 73.9697C209.717 73.4572 210.927 72.5893 211.778 71.4758C212.63 70.3622 213.084 69.0531 213.084 67.7138C213.084 66.8246 212.884 65.944 212.494 65.1225C212.105 64.3009 211.534 63.5544 210.815 62.9257C210.095 62.2969 209.241 61.7981 208.301 61.4578C207.361 61.1175 206.353 60.9424 205.336 60.9424ZM271.198 60.9424C269.666 60.9424 268.167 61.3396 266.893 62.0836C265.619 62.8277 264.626 63.8852 264.039 65.1225C263.453 66.3598 263.299 67.7213 263.598 69.0348C263.897 70.3484 264.635 71.5549 265.719 72.5019C266.803 73.4489 268.183 74.0938 269.686 74.3551C271.189 74.6164 272.747 74.4823 274.163 73.9697C275.579 73.4572 276.789 72.5893 277.641 71.4758C278.492 70.3622 278.947 69.0531 278.947 67.7138C278.947 66.8246 278.746 65.944 278.357 65.1225C277.967 64.3009 277.397 63.5544 276.677 62.9257C275.958 62.2969 275.103 61.7981 274.163 61.4578C273.223 61.1175 272.216 60.9424 271.198 60.9424ZM337.06 60.9424C335.528 60.9424 334.03 61.3396 332.756 62.0836C331.481 62.8277 330.488 63.8852 329.902 65.1225C329.315 66.3598 329.162 67.7213 329.461 69.0348C329.76 70.3484 330.498 71.5549 331.581 72.5019C332.665 73.4489 334.046 74.0938 335.549 74.3551C337.052 74.6164 338.61 74.4823 340.026 73.9697C341.442 73.4572 342.652 72.5893 343.503 71.4758C344.355 70.3622 344.809 69.0531 344.809 67.7138C344.809 66.8246 344.609 65.944 344.219 65.1225C343.83 64.3009 343.259 63.5544 342.54 62.9257C341.82 62.2969 340.966 61.7981 340.026 61.4578C339.086 61.1175 338.078 60.9424 337.06 60.9424Z" fill="#7743DB"/>
<path d="M213.084 133.735C213.084 135.074 212.63 136.383 211.778 137.497C210.927 138.61 209.717 139.478 208.301 139.991C206.885 140.503 205.327 140.637 203.824 140.376C202.321 140.115 200.94 139.47 199.857 138.523C198.773 137.576 198.035 136.369 197.736 135.056C197.437 133.742 197.591 132.381 198.177 131.143C198.763 129.906 199.757 128.849 201.031 128.105C202.305 127.361 203.803 126.963 205.336 126.963C207.391 126.963 209.362 127.677 210.815 128.947C212.268 130.217 213.084 131.939 213.084 133.735ZM271.198 126.963C269.666 126.963 268.167 127.361 266.893 128.105C265.619 128.849 264.626 129.906 264.039 131.143C263.453 132.381 263.299 133.742 263.598 135.056C263.897 136.369 264.635 137.576 265.719 138.523C266.803 139.47 268.183 140.115 269.686 140.376C271.189 140.637 272.747 140.503 274.163 139.991C275.579 139.478 276.789 138.61 277.641 137.497C278.492 136.383 278.947 135.074 278.947 133.735C278.947 132.846 278.746 131.965 278.357 131.143C277.967 130.322 277.397 129.575 276.677 128.947C275.958 128.318 275.103 127.819 274.163 127.479C273.223 127.138 272.216 126.963 271.198 126.963ZM337.06 140.506C338.593 140.506 340.091 140.109 341.365 139.365C342.64 138.621 343.633 137.563 344.219 136.326C344.806 135.089 344.959 133.727 344.66 132.414C344.361 131.1 343.623 129.894 342.54 128.947C341.456 128 340.075 127.355 338.572 127.093C337.069 126.832 335.511 126.966 334.095 127.479C332.679 127.991 331.469 128.859 330.618 129.973C329.766 131.086 329.312 132.396 329.312 133.735C329.312 135.531 330.128 137.253 331.581 138.523C333.035 139.793 335.005 140.506 337.06 140.506ZM205.336 187.906C203.803 187.906 202.305 188.303 201.031 189.047C199.757 189.791 198.763 190.849 198.177 192.086C197.591 193.323 197.437 194.685 197.736 195.998C198.035 197.312 198.773 198.518 199.857 199.465C200.94 200.412 202.321 201.057 203.824 201.318C205.327 201.58 206.885 201.446 208.301 200.933C209.717 200.421 210.927 199.553 211.778 198.439C212.63 197.326 213.084 196.016 213.084 194.677C213.084 193.788 212.884 192.907 212.494 192.086C212.105 191.264 211.534 190.518 210.815 189.889C210.095 189.26 209.241 188.761 208.301 188.421C207.361 188.081 206.353 187.906 205.336 187.906ZM271.198 187.906C269.666 187.906 268.167 188.303 266.893 189.047C265.619 189.791 264.626 190.849 264.039 192.086C263.453 193.323 263.299 194.685 263.598 195.998C263.897 197.312 264.635 198.518 265.719 199.465C266.803 200.412 268.183 201.057 269.686 201.318C271.189 201.58 272.747 201.446 274.163 200.933C275.579 200.421 276.789 199.553 277.641 198.439C278.492 197.326 278.947 196.016 278.947 194.677C278.947 193.788 278.746 192.907 278.357 192.086C277.967 191.264 277.397 190.518 276.677 189.889C275.958 189.26 275.103 188.761 274.163 188.421C273.223 188.081 272.216 187.906 271.198 187.906ZM337.06 187.906C335.528 187.906 334.03 188.303 332.756 189.047C331.481 189.791 330.488 190.849 329.902 192.086C329.315 193.323 329.162 194.685 329.461 195.998C329.76 197.312 330.498 198.518 331.581 199.465C332.665 200.412 334.046 201.057 335.549 201.318C337.052 201.58 338.61 201.446 340.026 200.933C341.442 200.421 342.652 199.553 343.503 198.439C344.355 197.326 344.809 196.016 344.809 194.677C344.809 193.788 344.609 192.907 344.219 192.086C343.83 191.264 343.259 190.518 342.54 189.889C341.82 189.26 340.966 188.761 340.026 188.421C339.086 188.081 338.078 187.906 337.06 187.906Z" fill="#7743DB"/>
<path d="M415.514 133.735C415.514 135.074 415.06 136.383 414.209 137.497C413.357 138.61 412.147 139.478 410.731 139.991C409.315 140.503 407.757 140.637 406.254 140.376C404.751 140.115 403.37 139.47 402.287 138.523C401.203 137.576 400.465 136.369 400.166 135.056C399.867 133.742 400.021 132.381 400.607 131.143C401.194 129.906 402.187 128.849 403.461 128.105C404.735 127.361 406.233 126.963 407.766 126.963C409.821 126.963 411.792 127.677 413.245 128.947C414.698 130.217 415.514 131.939 415.514 133.735ZM473.628 126.963C472.096 126.963 470.598 127.361 469.323 128.105C468.049 128.849 467.056 129.906 466.47 131.143C465.883 132.381 465.73 133.742 466.029 135.056C466.328 136.369 467.066 137.576 468.149 138.523C469.233 139.47 470.614 140.115 472.117 140.376C473.62 140.637 475.178 140.503 476.593 139.991C478.009 139.478 479.22 138.61 480.071 137.497C480.922 136.383 481.377 135.074 481.377 133.735C481.377 132.846 481.176 131.965 480.787 131.143C480.398 130.322 479.827 129.575 479.107 128.947C478.388 128.318 477.534 127.819 476.594 127.479C475.653 127.138 474.646 126.963 473.628 126.963ZM539.491 140.506C541.023 140.506 542.521 140.109 543.796 139.365C545.07 138.621 546.063 137.563 546.649 136.326C547.236 135.089 547.389 133.727 547.09 132.414C546.791 131.1 546.053 129.894 544.97 128.947C543.886 128 542.505 127.355 541.002 127.093C539.499 126.832 537.941 126.966 536.525 127.479C535.11 127.991 533.899 128.859 533.048 129.973C532.197 131.086 531.742 132.396 531.742 133.735C531.742 135.531 532.559 137.253 534.012 138.523C535.465 139.793 537.436 140.506 539.491 140.506ZM407.766 187.906C406.233 187.906 404.735 188.303 403.461 189.047C402.187 189.791 401.194 190.849 400.607 192.086C400.021 193.323 399.867 194.685 400.166 195.998C400.465 197.312 401.203 198.518 402.287 199.465C403.37 200.412 404.751 201.057 406.254 201.318C407.757 201.58 409.315 201.446 410.731 200.933C412.147 200.421 413.357 199.553 414.209 198.439C415.06 197.326 415.514 196.016 415.514 194.677C415.514 193.788 415.314 192.907 414.925 192.086C414.535 191.264 413.964 190.518 413.245 189.889C412.525 189.26 411.671 188.761 410.731 188.421C409.791 188.081 408.783 187.906 407.766 187.906ZM473.628 187.906C472.096 187.906 470.598 188.303 469.323 189.047C468.049 189.791 467.056 190.849 466.47 192.086C465.883 193.323 465.73 194.685 466.029 195.998C466.328 197.312 467.066 198.518 468.149 199.465C469.233 200.412 470.614 201.057 472.117 201.318C473.62 201.58 475.178 201.446 476.593 200.933C478.009 200.421 479.22 199.553 480.071 198.439C480.922 197.326 481.377 196.016 481.377 194.677C481.377 193.788 481.176 192.907 480.787 192.086C480.398 191.264 479.827 190.518 479.107 189.889C478.388 189.26 477.534 188.761 476.594 188.421C475.653 188.081 474.646 187.906 473.628 187.906ZM539.491 187.906C537.958 187.906 536.46 188.303 535.186 189.047C533.912 189.791 532.918 190.849 532.332 192.086C531.746 193.323 531.592 194.685 531.891 195.998C532.19 197.312 532.928 198.518 534.012 199.465C535.095 200.412 536.476 201.057 537.979 201.318C539.482 201.58 541.04 201.446 542.456 200.933C543.872 200.421 545.082 199.553 545.933 198.439C546.785 197.326 547.239 196.016 547.239 194.677C547.239 193.788 547.039 192.907 546.649 192.086C546.26 191.264 545.689 190.518 544.97 189.889C544.25 189.26 543.396 188.761 542.456 188.421C541.516 188.081 540.508 187.906 539.491 187.906Z" fill="#7743DB"/>
<path d="M613.102 133.735C613.102 135.074 612.647 136.383 611.796 137.497C610.944 138.61 609.734 139.478 608.318 139.991C606.902 140.503 605.344 140.637 603.841 140.376C602.338 140.115 600.958 139.47 599.874 138.523C598.79 137.576 598.052 136.369 597.753 135.056C597.454 133.742 597.608 132.381 598.194 131.143C598.781 129.906 599.774 128.849 601.048 128.105C602.322 127.361 603.821 126.963 605.353 126.963C607.408 126.963 609.379 127.677 610.832 128.947C612.285 130.217 613.102 131.939 613.102 133.735ZM671.215 126.963C669.683 126.963 668.185 127.361 666.911 128.105C665.636 128.849 664.643 129.906 664.057 131.143C663.47 132.381 663.317 133.742 663.616 135.056C663.915 136.369 664.653 137.576 665.736 138.523C666.82 139.47 668.201 140.115 669.704 140.376C671.207 140.637 672.765 140.503 674.181 139.991C675.597 139.478 676.807 138.61 677.658 137.497C678.51 136.383 678.964 135.074 678.964 133.735C678.964 132.846 678.764 131.965 678.374 131.143C677.985 130.322 677.414 129.575 676.695 128.947C675.975 128.318 675.121 127.819 674.181 127.479C673.241 127.138 672.233 126.963 671.215 126.963ZM737.078 140.506C738.61 140.506 740.108 140.109 741.383 139.365C742.657 138.621 743.65 137.563 744.237 136.326C744.823 135.089 744.976 133.727 744.677 132.414C744.378 131.1 743.641 129.894 742.557 128.947C741.473 128 740.093 127.355 738.589 127.093C737.086 126.832 735.528 126.966 734.113 127.479C732.697 127.991 731.487 128.859 730.635 129.973C729.784 131.086 729.329 132.396 729.329 133.735C729.329 135.531 730.146 137.253 731.599 138.523C733.052 139.793 735.023 140.506 737.078 140.506ZM605.353 187.906C603.821 187.906 602.322 188.303 601.048 189.047C599.774 189.791 598.781 190.849 598.194 192.086C597.608 193.323 597.454 194.685 597.753 195.998C598.052 197.312 598.79 198.518 599.874 199.465C600.958 200.412 602.338 201.057 603.841 201.318C605.344 201.58 606.902 201.446 608.318 200.933C609.734 200.421 610.944 199.553 611.796 198.439C612.647 197.326 613.102 196.016 613.102 194.677C613.102 193.788 612.901 192.907 612.512 192.086C612.122 191.264 611.552 190.518 610.832 189.889C610.113 189.26 609.258 188.761 608.318 188.421C607.378 188.081 606.371 187.906 605.353 187.906ZM671.215 187.906C669.683 187.906 668.185 188.303 666.911 189.047C665.636 189.791 664.643 190.849 664.057 192.086C663.47 193.323 663.317 194.685 663.616 195.998C663.915 197.312 664.653 198.518 665.736 199.465C666.82 200.412 668.201 201.057 669.704 201.318C671.207 201.58 672.765 201.446 674.181 200.933C675.597 200.421 676.807 199.553 677.658 198.439C678.51 197.326 678.964 196.016 678.964 194.677C678.964 193.788 678.764 192.907 678.374 192.086C677.985 191.264 677.414 190.518 676.695 189.889C675.975 189.26 675.121 188.761 674.181 188.421C673.241 188.081 672.233 187.906 671.215 187.906ZM737.078 187.906C735.545 187.906 734.047 188.303 732.773 189.047C731.499 189.791 730.506 190.849 729.919 192.086C729.333 193.323 729.179 194.685 729.478 195.998C729.777 197.312 730.515 198.518 731.599 199.465C732.682 200.412 734.063 201.057 735.566 201.318C737.069 201.58 738.627 201.446 740.043 200.933C741.459 200.421 742.669 199.553 743.52 198.439C744.372 197.326 744.826 196.016 744.826 194.677C744.826 193.788 744.626 192.907 744.237 192.086C743.847 191.264 743.276 190.518 742.557 189.889C741.837 189.26 740.983 188.761 740.043 188.421C739.103 188.081 738.095 187.906 737.078 187.906Z" fill="#7743DB"/>
<path d="M415.514 6.77138C415.514 8.11064 415.06 9.41982 414.209 10.5334C413.357 11.6469 412.147 12.5148 410.731 13.0273C409.315 13.5398 407.757 13.6739 406.254 13.4127C404.751 13.1514 403.37 12.5065 402.287 11.5595C401.203 10.6125 400.465 9.40593 400.166 8.09241C399.867 6.77889 400.021 5.41739 400.607 4.18009C401.194 2.94278 402.187 1.88524 403.461 1.14119C404.735 0.397139 406.233 3.65632e-06 407.766 3.65632e-06C409.821 2.16148e-05 411.792 0.713439 413.245 1.98332C414.698 3.25319 415.514 4.97551 415.514 6.77138ZM473.628 3.65632e-06C472.096 3.65632e-06 470.598 0.397139 469.323 1.14119C468.049 1.88524 467.056 2.94278 466.47 4.18009C465.883 5.41739 465.73 6.77889 466.029 8.09241C466.328 9.40593 467.066 10.6125 468.149 11.5595C469.233 12.5065 470.614 13.1514 472.117 13.4127C473.62 13.6739 475.178 13.5398 476.593 13.0273C478.009 12.5148 479.22 11.6469 480.071 10.5334C480.922 9.41982 481.377 8.11064 481.377 6.77138C481.377 5.88215 481.176 5.00161 480.787 4.18006C480.398 3.35851 479.827 2.61202 479.107 1.98324C478.388 1.35445 477.534 0.855677 476.594 0.515392C475.653 0.175107 474.646 -2.19104e-05 473.628 3.65632e-06ZM539.491 13.5428C541.023 13.5428 542.521 13.1456 543.796 12.4016C545.07 11.6575 546.063 10.6 546.649 9.36268C547.236 8.12537 547.389 6.76387 547.09 5.45035C546.791 4.13683 546.053 2.93029 544.97 1.9833C543.886 1.0363 542.505 0.391388 541.002 0.130113C539.499 -0.131162 537.941 0.00293391 536.525 0.515444C535.11 1.02795 533.899 1.89586 533.048 3.0094C532.197 4.12295 531.742 5.43213 531.742 6.77138C531.742 8.56726 532.559 10.2896 534.012 11.5595C535.465 12.8293 537.436 13.5427 539.491 13.5428ZM407.766 60.9424C406.233 60.9424 404.735 61.3396 403.461 62.0836C402.187 62.8277 401.194 63.8852 400.607 65.1225C400.021 66.3598 399.867 67.7213 400.166 69.0348C400.465 70.3484 401.203 71.5549 402.287 72.5019C403.37 73.4489 404.751 74.0938 406.254 74.3551C407.757 74.6164 409.315 74.4823 410.731 73.9697C412.147 73.4572 413.357 72.5893 414.209 71.4758C415.06 70.3622 415.514 69.0531 415.514 67.7138C415.514 66.8246 415.314 65.944 414.925 65.1225C414.535 64.3009 413.964 63.5544 413.245 62.9257C412.525 62.2969 411.671 61.7981 410.731 61.4578C409.791 61.1175 408.783 60.9424 407.766 60.9424ZM473.628 60.9424C472.096 60.9424 470.598 61.3396 469.323 62.0836C468.049 62.8277 467.056 63.8852 466.47 65.1225C465.883 66.3598 465.73 67.7213 466.029 69.0348C466.328 70.3484 467.066 71.5549 468.149 72.5019C469.233 73.4489 470.614 74.0938 472.117 74.3551C473.62 74.6164 475.178 74.4823 476.593 73.9697C478.009 73.4572 479.22 72.5893 480.071 71.4758C480.922 70.3622 481.377 69.0531 481.377 67.7138C481.377 66.8246 481.176 65.944 480.787 65.1225C480.398 64.3009 479.827 63.5544 479.107 62.9257C478.388 62.2969 477.534 61.7981 476.594 61.4578C475.653 61.1175 474.646 60.9424 473.628 60.9424ZM539.491 60.9424C537.958 60.9424 536.46 61.3396 535.186 62.0836C533.912 62.8277 532.918 63.8852 532.332 65.1225C531.746 66.3598 531.592 67.7213 531.891 69.0348C532.19 70.3484 532.928 71.5549 534.012 72.5019C535.095 73.4489 536.476 74.0938 537.979 74.3551C539.482 74.6164 541.04 74.4823 542.456 73.9697C543.872 73.4572 545.082 72.5893 545.933 71.4758C546.785 70.3622 547.239 69.0531 547.239 67.7138C547.239 66.8246 547.039 65.944 546.649 65.1225C546.26 64.3009 545.689 63.5544 544.97 62.9257C544.25 62.2969 543.396 61.7981 542.456 61.4578C541.516 61.1175 540.508 60.9424 539.491 60.9424Z" fill="#7743DB"/>
<path d="M613.102 6.77138C613.102 8.11064 612.647 9.41982 611.796 10.5334C610.944 11.6469 609.734 12.5148 608.318 13.0273C606.902 13.5398 605.344 13.6739 603.841 13.4127C602.338 13.1514 600.958 12.5065 599.874 11.5595C598.79 10.6125 598.052 9.40593 597.753 8.09241C597.454 6.77889 597.608 5.41739 598.194 4.18009C598.781 2.94278 599.774 1.88524 601.048 1.14119C602.322 0.397139 603.821 3.65632e-06 605.353 3.65632e-06C607.408 2.16148e-05 609.379 0.713439 610.832 1.98332C612.285 3.25319 613.102 4.97551 613.102 6.77138ZM671.215 3.65632e-06C669.683 3.65632e-06 668.185 0.397139 666.911 1.14119C665.636 1.88524 664.643 2.94278 664.057 4.18009C663.47 5.41739 663.317 6.77889 663.616 8.09241C663.915 9.40593 664.653 10.6125 665.736 11.5595C666.82 12.5065 668.201 13.1514 669.704 13.4127C671.207 13.6739 672.765 13.5398 674.181 13.0273C675.597 12.5148 676.807 11.6469 677.658 10.5334C678.51 9.41982 678.964 8.11064 678.964 6.77138C678.964 5.88215 678.764 5.00161 678.374 4.18006C677.985 3.35851 677.414 2.61202 676.695 1.98324C675.975 1.35445 675.121 0.855677 674.181 0.515392C673.241 0.175107 672.233 -2.19104e-05 671.215 3.65632e-06ZM737.078 13.5428C738.61 13.5428 740.108 13.1456 741.383 12.4016C742.657 11.6575 743.65 10.6 744.237 9.36268C744.823 8.12537 744.976 6.76387 744.677 5.45035C744.378 4.13683 743.641 2.93029 742.557 1.9833C741.473 1.0363 740.093 0.391388 738.589 0.130113C737.086 -0.131162 735.528 0.00293391 734.113 0.515444C732.697 1.02795 731.487 1.89586 730.635 3.0094C729.784 4.12295 729.329 5.43213 729.329 6.77138C729.329 8.56726 730.146 10.2896 731.599 11.5595C733.052 12.8293 735.023 13.5427 737.078 13.5428ZM605.353 60.9424C603.821 60.9424 602.322 61.3396 601.048 62.0836C599.774 62.8277 598.781 63.8852 598.194 65.1225C597.608 66.3598 597.454 67.7213 597.753 69.0348C598.052 70.3484 598.79 71.5549 599.874 72.5019C600.958 73.4489 602.338 74.0938 603.841 74.3551C605.344 74.6164 606.902 74.4823 608.318 73.9697C609.734 73.4572 610.944 72.5893 611.796 71.4758C612.647 70.3622 613.102 69.0531 613.102 67.7138C613.102 66.8246 612.901 65.944 612.512 65.1225C612.122 64.3009 611.552 63.5544 610.832 62.9257C610.113 62.2969 609.258 61.7981 608.318 61.4578C607.378 61.1175 606.371 60.9424 605.353 60.9424ZM671.215 60.9424C669.683 60.9424 668.185 61.3396 666.911 62.0836C665.636 62.8277 664.643 63.8852 664.057 65.1225C663.47 66.3598 663.317 67.7213 663.616 69.0348C663.915 70.3484 664.653 71.5549 665.736 72.5019C666.82 73.4489 668.201 74.0938 669.704 74.3551C671.207 74.6164 672.765 74.4823 674.181 73.9697C675.597 73.4572 676.807 72.5893 677.658 71.4758C678.51 70.3622 678.964 69.0531 678.964 67.7138C678.964 66.8246 678.764 65.944 678.374 65.1225C677.985 64.3009 677.414 63.5544 676.695 62.9257C675.975 62.2969 675.121 61.7981 674.181 61.4578C673.241 61.1175 672.233 60.9424 671.215 60.9424ZM737.078 60.9424C735.545 60.9424 734.047 61.3396 732.773 62.0836C731.499 62.8277 730.506 63.8852 729.919 65.1225C729.333 66.3598 729.179 67.7213 729.478 69.0348C729.777 70.3484 730.515 71.5549 731.599 72.5019C732.682 73.4489 734.063 74.0938 735.566 74.3551C737.069 74.6164 738.627 74.4823 740.043 73.9697C741.459 73.4572 742.669 72.5893 743.52 71.4758C744.372 70.3622 744.826 69.0531 744.826 67.7138C744.826 66.8246 744.626 65.944 744.237 65.1225C743.847 64.3009 743.276 63.5544 742.557 62.9257C741.837 62.2969 740.983 61.7981 740.043 61.4578C739.103 61.1175 738.095 60.9424 737.078 60.9424Z" fill="#7743DB"/>
</svg>
