<svg width="122" height="122" viewBox="0 0 122 122" fill="none" xmlns="http://www.w3.org/2000/svg">
<path d="M122 61C122 94.6894 94.6894 122 61 122C27.3106 122 0 94.6894 0 61C0 27.3106 27.3106 0 61 0C94.6894 0 122 27.3106 122 61Z" fill="#74847F"/>
<path d="M90.923 48.2213C90.8863 46.5204 90.8513 44.9136 90.8513 43.3591C90.8513 42.1413 89.7326 41.1539 88.352 41.1539C77.663 41.1539 69.5247 38.4436 62.7411 32.6244C61.7707 31.7917 60.2264 31.792 59.2563 32.6244C52.4733 38.4436 44.3364 41.1539 33.6481 41.1539C32.2677 41.1539 31.1487 42.1413 31.1487 43.3591C31.1487 44.9139 31.114 46.5213 31.077 48.2225C30.7345 64.0514 30.2652 85.7298 60.1801 94.8783C60.4453 94.9594 60.7219 95 60.9985 95C61.2751 95 61.552 94.9594 61.817 94.8783C91.7341 85.7295 91.2656 64.0505 90.923 48.2213ZM60.9989 90.4547C35.343 82.2319 35.7309 64.2187 36.0751 48.3066C36.0958 47.3516 36.1158 46.426 36.1298 45.5187C46.1406 45.1459 54.1459 42.4694 60.9989 37.2023C67.8525 42.4694 75.8591 45.1461 85.8706 45.5187C85.8846 46.4257 85.9046 47.3507 85.9253 48.3051C86.2692 64.2178 86.6567 82.2316 60.9989 90.4547Z" fill="black"/>
<path d="M69.6911 56.622L57.5078 66.8726L52.3089 62.4981C51.3231 61.669 49.7248 61.669 48.7393 62.4981C47.7536 63.3279 47.7536 64.6725 48.7393 65.5019L55.723 71.3781C56.2158 71.7927 56.862 72 57.5078 72C58.1537 72 58.7999 71.7927 59.2926 71.3781L73.2604 59.6257C74.2465 58.7963 74.2465 57.4514 73.2607 56.6222C72.2752 55.7928 70.6769 55.7925 69.6911 56.622Z" fill="black"/>
</svg>
